<?xml version="1.0" encoding="UTF-8"?>
<svg version="1.1" xmlns="http://www.w3.org/2000/svg" width="796" height="796">
<path d="M0 0 C60.76125 -0.04125 121.5225 -0.0825 184.125 -0.125 C212.84684326 -0.15231201 212.84684326 -0.15231201 242.14892578 -0.18017578 C265.62670898 -0.18920898 265.62670898 -0.18920898 276.63619995 -0.19088745 C284.28489428 -0.19274211 291.93355893 -0.20003396 299.58224487 -0.21115112 C308.42857091 -0.22398974 317.27486879 -0.229647 326.12120419 -0.2268899 C330.6349087 -0.2256983 335.14855047 -0.22742636 339.66224313 -0.23843026 C366.46156052 -0.30055081 393.19747675 0.20841183 419.75 4.25 C420.47182465 4.35704254 421.19364929 4.46408508 421.93734741 4.57437134 C468.44068472 11.50859753 515.13033897 26.46806542 551 58 C551.94488281 58.82371094 552.88976562 59.64742187 553.86328125 60.49609375 C587.1591253 90.09740572 603.49108592 132.21806086 606.82348633 175.98193359 C609.60911955 223.61125299 598.36218649 268.00599379 566.4375 304.3125 C564.96803144 305.88412413 563.48869678 307.44657727 562 309 C561.20722656 309.8559375 560.41445313 310.711875 559.59765625 311.59375 C548.01978764 323.7113388 534.253096 333.28977466 520 342 C519.08734375 342.57492187 518.1746875 343.14984375 517.234375 343.7421875 C515 345 515 345 513 345 C513 345.66 513 346.32 513 347 C513.53004639 347.15637939 514.06009277 347.31275879 514.60620117 347.47387695 C520.8735403 349.42965683 526.52692922 352.10437187 532.3125 355.1875 C533.23675781 355.67726318 534.16101563 356.16702637 535.11328125 356.67163086 C542.0548526 360.39651022 548.63865757 364.33742515 555 369 C556.051875 369.76828125 557.10375 370.5365625 558.1875 371.328125 C575.76118239 384.39793405 590.14487535 399.58713227 602 418 C602.64839844 418.99644531 603.29679688 419.99289062 603.96484375 421.01953125 C622.2372849 450.6449177 628.22186115 486.84138509 628.25 521.125 C628.25101212 522.24183167 628.25101212 522.24183167 628.25204468 523.38122559 C628.1973926 561.63767857 620.218975 600.19909203 598 632 C597.319375 632.97839844 596.63875 633.95679688 595.9375 634.96484375 C558.41819817 686.23699778 492.17939483 710.18906903 431.61816406 719.73950195 C430.50666992 719.90796631 429.39517578 720.07643066 428.25 720.25 C427.25967773 720.40106201 426.26935547 720.55212402 425.24902344 720.70776367 C421.83830758 721.19247025 418.42166468 721.60240788 415 722 C414.30143918 722.08351172 413.60287836 722.16702344 412.88314903 722.25306582 C394.01646367 724.42578155 375.16554018 724.275574 356.2068121 724.23214546 C351.34509722 724.2233066 346.48338573 724.22634154 341.621665 724.2277813 C332.21751433 724.22883743 322.81340238 724.21967333 313.40926161 724.20677864 C302.51368213 724.19229077 291.61812539 724.19078435 280.72253418 724.18920898 C252.00251672 724.17873905 223.28250776 724.15081656 194.5625 724.125 C130.356875 724.08375 66.15125 724.0425 0 724 C0 485.08 0 246.16 0 0 Z M147.99609375 107.19140625 C136.7203238 120.80513282 133.59709337 137.76661367 135 155 C136.87031634 169.0056247 141.15820783 181.5112635 152 191 C159.15626444 196.27491705 166.29249162 197.11662253 175 196 C184.73101391 193.85945859 192.56226708 187.07146545 198 178.875 C204.18700073 167.68155699 202.92827449 156.51311089 199.54077148 144.69116211 C198.31982115 140.63036722 197.06148593 136.58303721 195.75610352 132.54858398 C194.22776978 127.39705804 193.95580286 123.18842007 194.375 117.8125 C194.46523438 116.58144531 194.55546875 115.35039062 194.6484375 114.08203125 C195 111 195 111 196 109 C196.25910156 110.36705078 196.25910156 110.36705078 196.5234375 111.76171875 C198.55067858 121.40819739 201.96053634 129.7883326 206.47021484 138.55151367 C212.12120329 149.69169699 213.99848363 161.81378832 211.3125 174.16015625 C206.86251661 187.34323203 198.29591146 196.64501077 185.9375 202.875 C174.83304442 208.19174079 163.37312061 210.32840555 151.25 206.5625 C141.17427592 202.28884973 135.44265097 195.27494061 131.15625 185.40625 C127.81461848 175.56198416 127.75837635 166.2322876 127.875 155.9375 C127.88504992 154.38867766 127.89417221 152.83984901 127.90234375 151.29101562 C127.92419793 147.52718572 127.95861657 143.76366377 128 140 C115.73542158 151.66661442 114.17839484 177.25050245 113.73538208 193.32507324 C113.67301032 197.00884947 113.66883148 200.69081897 113.6875 204.375 C113.68998749 205.17389648 113.69247498 205.97279297 113.69503784 206.79589844 C113.90278429 250.60287991 121.5488002 294.16165847 127.79991817 337.41892719 C128.09584259 339.46677558 128.39169984 341.51463366 128.6875 343.5625 C128.78487331 344.23662304 128.88224663 344.91074608 128.98257065 345.60529709 C131.90395032 365.84434819 134.7148882 386.07227389 136.65771484 406.43164062 C136.87552386 408.7023229 137.10385405 410.97203876 137.34619141 413.24023438 C140.89962325 446.53194249 141.98527255 482.97297413 136 516 C135.82839355 516.94746094 135.65678711 517.89492188 135.47998047 518.87109375 C130.34107384 545.94794227 121.03771615 571.80169288 103 593 C102.44699219 593.6909375 101.89398438 594.381875 101.32421875 595.09375 C87.31690723 612.31028384 65.65255445 623.85242029 45 631 C45 631.33 45 631.66 45 632 C57.38985615 632.13225372 69.77972957 632.26274698 82.16962624 632.39115143 C87.92624425 632.45086289 93.68285532 632.51112231 99.43945312 632.57275391 C124.2934127 632.83846501 149.14430294 633.10173131 174 633 C173.86835953 632.09022903 173.73671906 631.18045807 173.60108948 630.24311829 C169.36160087 600.73118979 166.51362716 569.40574145 173 540 C173.16628906 539.21399414 173.33257812 538.42798828 173.50390625 537.61816406 C178.50258239 514.65202422 188.43076334 492.69503628 204 475 C204.4640625 474.39285156 204.928125 473.78570313 205.40625 473.16015625 C220.47148958 453.63964764 247.52850738 442.6688871 271.25 439.3125 C295.92524217 437.21442026 295.92524217 437.21442026 304.7578125 444.4375 C311.8307194 451.83028711 314.69217358 462.2996239 317 472 C317.33 472 317.66 472 318 472 C318.5674521 460.65095807 316.16757396 450.0339663 309 441 C301.88373846 433.89761031 292.93384599 429.85743884 283.25 427.5625 C276.09456425 425.70738703 271.99916424 422.11548615 268.125 415.875 C265.72150733 410.64339761 265.26620812 405.36359282 264.875 399.6875 C264.8042627 398.81528809 264.73352539 397.94307617 264.66064453 397.04443359 C264.47215824 392.53900324 264.46510428 390.67753457 267.34375 387.03125 C268.2203125 386.3609375 269.096875 385.690625 270 385 C276.06248325 379.94793063 277.02043751 374.30249825 278.70703125 366.89453125 C280.80286556 357.87235682 283.26215333 352.53230219 291.24609375 347.5078125 C296.63428719 344.55768106 302.30560827 342.28546049 308 340 C309.54494141 339.37351562 309.54494141 339.37351562 311.12109375 338.734375 C313.41007959 337.81228709 315.70227234 336.90003157 318 336 C318.02578125 335.04480469 318.0515625 334.08960938 318.078125 333.10546875 C318.58700067 321.50541663 320.57972015 312.27534981 328 303 C336.23260484 307.11630242 341.94543958 314.99313779 347.5859375 322.01953125 C350.15049022 325.18579941 352.78709071 328.28084654 355.4375 331.375 C359.57186444 336.21496839 363.47399435 341.18809634 367.30273438 346.27172852 C370.00223599 349.81509092 372.87494154 353.08087286 375.9375 356.3125 C396.09935861 378.1176449 408.44003863 406.35536737 415 435 C415.17934082 435.75667969 415.35868164 436.51335937 415.54345703 437.29296875 C421.35194824 462.99568656 419.94844466 493.52633654 414 519 C413.69449219 520.32209473 413.69449219 520.32209473 413.3828125 521.67089844 C406.78165385 549.14516523 394.18042709 574.52127277 379.73193359 598.63720703 C376.36061074 604.29500097 373.20637112 610.05457504 370.125 615.875 C369.6724585 616.71885254 369.21991699 617.56270508 368.75366211 618.43212891 C365.60281853 624.44689469 363.17840878 630.57193361 361 637 C366.42086532 636.49768043 370.60897847 635.04419651 375.4375 632.5 C376.12416748 632.14615234 376.81083496 631.79230469 377.51831055 631.42773438 C379.68732266 630.30041075 381.84494764 629.15376395 384 628 C385.04945801 627.44119141 385.04945801 627.44119141 386.12011719 626.87109375 C394.10792194 622.58804851 401.5179711 618.21980403 408.47265625 612.3359375 C412.04701065 610.44655696 414.09521441 611.12224358 418 612 C418.66765381 612.15001465 419.33530762 612.3000293 420.02319336 612.45458984 C422.88956919 613.11439333 425.74210444 613.82630844 428.59570312 614.5390625 C453.20621834 620.52963296 478.84931317 616.5651377 500.6875 603.875 C508.34689052 599.20661952 514.72377736 593.36249374 521 587 C521.82242187 586.18789063 522.64484375 585.37578125 523.4921875 584.5390625 C542.78400754 564.44619803 551.51907975 534.42471333 551 507 C548.28775382 508.61268692 545.62647188 510.24901874 543 512 C542.91024902 511.27522461 542.82049805 510.55044922 542.72802734 509.80371094 C539.71778827 486.23912458 534.8521577 473.46594673 516.84765625 457.3984375 C515.12041411 455.79883313 515.12041411 455.79883313 513 456 C512.34 459.3 511.68 462.6 511 466 C510.01 465.13375 509.02 464.2675 508 463.375 C507.35675781 462.83230469 506.71351563 462.28960937 506.05078125 461.73046875 C504.71900608 460.60670418 503.40268716 459.4642658 502.10546875 458.30078125 C496.95850169 453.97145865 492.72335361 452.57866984 486 453 C479.90651868 453.92940978 473.85799861 455.0473338 468 457 C467.93848755 456.09447388 467.93848755 456.09447388 467.87573242 455.1706543 C467.35305315 448.79593261 466.12888129 442.93633256 464.3125 436.8125 C464.04195801 435.8932373 463.77141602 434.97397461 463.49267578 434.02685547 C454.11484097 402.82008035 436.96044429 376.26484106 415.12109375 352.34375 C413.18168497 350.20075688 411.30670701 348.01655362 409.4375 345.8125 C406.51778664 342.45449249 403.34874192 339.57993341 399.95703125 336.70703125 C398.10019075 335.08739193 396.39602508 333.39876709 394.6875 331.625 C390.62914682 327.51205014 386.16853502 323.95090826 381.66308594 320.34228516 C379.83957345 318.87051891 378.03242619 317.3800816 376.2265625 315.88671875 C374.88020903 314.77864499 373.53385486 313.67057207 372.1875 312.5625 C371.58494385 312.06153809 370.9823877 311.56057617 370.36157227 311.04443359 C358.43544862 301.27754973 345.44640334 292.8399628 332.625 284.3125 C331.44546249 283.5268869 331.44546249 283.5268869 330.24209595 282.72540283 C316.97929147 273.89851921 303.60089717 265.29901163 290 257 C288.97471191 256.37351562 287.94942383 255.74703125 286.89306641 255.1015625 C281.07264682 251.54776148 275.24953254 247.9985355 269.40698242 244.48120117 C267.84511299 243.52006294 266.29945531 242.5318686 264.7746582 241.51293945 C258.72282271 237.48481374 254.24220217 237.01785091 247 238 C231.4916576 241.78716683 218.86434309 252.20409693 210.1875 265.375 C205.38125215 273.49143325 200.7986518 281.97605443 198 291 C199.66563512 273.47354095 204.16259989 255.23076022 217.58984375 242.8125 C233.8370774 230.59415897 252.02221739 230.56977912 271.4375 230.5 C294.56306496 230.4167429 315.93484377 229.42067051 333.8125 212.6875 C341.31055807 204.57955204 344.40149085 195.58324844 347 185 C347.30550781 183.76443359 347.30550781 183.76443359 347.6171875 182.50390625 C347.78476562 181.82199219 347.95234375 181.14007813 348.125 180.4375 C349 177 349 177 350.125 174.4375 C351.7712133 169.8516201 351.53088539 166.2892931 349.6875 161.8125 C344.62552566 156.51508499 337.88958515 155.41108764 330.92578125 153.8203125 C330.0143335 153.61156494 329.10288574 153.40281738 328.16381836 153.18774414 C326.3465291 152.78031371 324.52574302 152.38808863 322.70141602 152.01342773 C313.58710192 150.02007032 304.31023417 145.83220951 298.6171875 138.12890625 C295.55117851 133.2953347 293.15250146 128.21170668 290.77807617 123.0168457 C287.0249742 114.82486428 283.35559575 107.5409673 277 101 C276.484375 100.44570312 275.96875 99.89140625 275.4375 99.3203125 C259.99723224 84.42045412 235.98258348 82.82294541 215.8125 82.8125 C213.97461914 82.79413086 213.97461914 82.79413086 212.09960938 82.77539062 C187.4289272 82.73637531 165.02859474 88.56522096 147.99609375 107.19140625 Z M336 592 C335.34865075 593.56020867 334.70417036 595.12328579 334.0625 596.6875 C333.70285156 597.55761719 333.34320313 598.42773438 332.97265625 599.32421875 C329.00423272 610.24136782 330.36154628 623.86842155 333 635 C333.33 635.66 333.66 636.32 334 637 C335.32 637 336.64 637 338 637 C337.855625 635.70707031 337.71125 634.41414062 337.5625 633.08203125 C336.05966051 619.19649021 335.59446834 605.92982268 337 592 C336.67 592 336.34 592 336 592 Z M285 615 C285.64016973 620.13756468 287.19700333 624.58790181 289.0625 629.375 C289.34416016 630.11105469 289.62582031 630.84710937 289.91601562 631.60546875 C290.60566618 633.4055736 291.30213932 635.2030621 292 637 C293.65 637 295.3 637 297 637 C295.57315404 633.89082704 294.13171297 630.78863947 292.6875 627.6875 C292.08131836 626.36588867 292.08131836 626.36588867 291.46289062 625.01757812 C290.86831055 623.74624023 290.86831055 623.74624023 290.26171875 622.44921875 C289.90037842 621.66893311 289.53903809 620.88864746 289.16674805 620.0847168 C287.99872537 617.99772252 286.76994399 616.59183642 285 615 Z " fill="#0123A3" transform="translate(118,39)"/>
<path d="M0 0 C9.24854767 4.21400719 15.31217194 17.02351819 19 26 C20.21052461 29.63157384 21.17897388 33.26249302 22 37 C22.226875 37.99 22.45375 38.98 22.6875 40 C24.74323938 59.73509808 18.03369109 77.25592378 5.91918945 92.60717773 C-1.2615475 101.18465974 -9.69494694 106.8898219 -21 108 C-24.35546875 107.55859375 -24.35546875 107.55859375 -27 107 C-25.14410016 103.67484611 -23.26144234 100.40605795 -21.19921875 97.203125 C-2.23219917 67.59247696 0.83305455 34.5439955 0 0 Z " fill="#0123A3" transform="translate(588,512)"/>
</svg>
